# xmcd
#
# Track frame offsets:
#	150
#	18155
#	39545
#	55912
#	76745
#	89172
#	101467
#	110485
#	132062
#	153627
#	171397
#	187085
#
# Disc length: 2738
#
# Revision: 2
# Processed by: cddbd v1.5.1PL0 Copyright (c) Steve Scherf et al.
# Submitted via: dBpowerAMP V4.0
# Normalized: r0:TSWAP
#
DISCID=9a0ab00c
DTITLE=Various Artist - Travenlin' Crossroads
DYEAR=1900
DGENRE=Country
TTITLE0=Chely Wright - Some Kind of Somethin'
TTITLE1=Jerry Jeff Walker - Leavin' Texas
TTITLE2=Barbara Mandrell - I Was Country When Country Wasn't Cool
TTITLE3=Vince Gill - If You Even Have Forever in Mind
TTITLE4=Kortney Kayle - Unbroken By You
TTITLE5=Johnny Cash - Ring Of Fire
TTITLE6=Patsy Cline - Walkin' After Midnight
TTITLE7=Sons Of The Desert - What I Did Right
TTITLE8=Tanya Tucker - Texas(When I Die)
TTITLE9=Toby Keith - Dream Walkin'
TTITLE10=Kathy Mattea - Walking Away A Winner
TTITLE11=Mark Chesnutt - I Don't Want To Miss A Thing
EXTD=
EXTT0=
EXTT1=
EXTT2=
EXTT3=
EXTT4=
EXTT5=
EXTT6=
EXTT7=
EXTT8=
EXTT9=
EXTT10=
EXTT11=
PLAYORDER=
